<svg id="Layer_1" xmlns="http://www.w3.org/2000/svg" viewBox="0 0 303 65"><style>.st0{fill-rule:evenodd;clip-rule:evenodd;fill:#004a2c}.st1{fill:#7d726d}</style><path class="st0" d="M112.7 4h-28l-14.4 6.6v5H48.7l-6.3 3.2V0H14.1L0 8.2v56.6h39.1l.9-24.6-.3-.2-.4-.2-.2-.2-.2-.1-.4-.4.5-.2-.2-.5-.1-.5-.2-.5v-.5l-.1-.5-.1-.5v-1.2l-.6-.3.2-.3.2-.3.3-.3.2-.2.7-.5.4-.3.4-.2v-.8H40l-.1-.2-.1-.1v-.6l.1-.1.1-.1.2-.2h.6l.1.1.1.1.1.1v.1l.1.2v.3l-.1.1v.1l-.1.2h-.1v.8l.4.2.4.3.3.2.3.3.3.2.2.3.2.3.2.3-.6.3v1.7l-.1.5-.1.5-.1.5-.2.5-.1.5.4.2-.3.4-.2.1-.2.2-.4.2-.1.1h-.1l-.2.1 1 24.6h35.5l.9-22.1-.4-.2-.3-.2-.4-.3-.3-.3.4-.2-.1-.5-.2-.4-.1-.4v-.5l-.1-.5-.1-.5v-1l-.5-.2.2-.3.2-.3.4-.5.3-.2.3-.2.3-.2.4-.2v-.8h-.1l-.1-.1v-.1l-.1-.2v-.2l.1-.2v-.1l.1-.1.1-.1h.1l.2-.1h.1l.2.1h.1l.1.1.1.1v.1l.1.2v.2l-.1.2v.1l-.1.1H79v.8l.4.2.3.2.3.2.3.2.2.3.3.2.2.3.1.3-.5.2v1l-.1.5v.5l-.1.5-.1.4-.1.4-.1.2v.1l-.1.1v.1l.5.2-.4.3-.3.3-.4.2-.3.2.8 22.1h32.8"/><path class="st1" d="M127 39.5l-7.4-19.2-.1 14.1v1c0 1 .1 1.7.2 2.2.1.5.3 1 .6 1.4h-3.7c.6-.5 1-2.2 1.3-5.1.3-2.9.4-7.3.4-13.3 0-.5-.1-1-.2-1.3-.1-.3-.3-.7-.6-.9h3.6c.3 0 .5 0 .6.1.1.1.2.2.3.5l5.8 15.6 6.5-15.4c.1-.3.2-.5.4-.6.1-.1.4-.1.7-.1h3.1c-.3.4-.5.9-.6 1.7-.1.8-.2 1.9-.2 3.3 0 5.4.1 9.2.3 11.3.2 2.2.6 3.6 1.2 4.3h-4.7c.3-.5.5-1 .7-1.7.1-.7.2-1.7.2-2.9v-.2c0-.8 0-1.7-.1-2.6l-.3-11.4-8 19.2zm14.2-.5c1-1.2 2-2.6 2.9-4.4 1-1.8 2-3.9 3.1-6.5.9-2.1 1.7-4 2.3-5.7.6-1.7.9-2.7.9-3 0-.2 0-.3-.1-.5 0-.2-.1-.3-.2-.5h4c1.6 5.2 3 9.6 4.4 13.2 1.4 3.6 2.6 6.1 3.6 7.5h-3.5l-3.2-9h-7.5l-1.4 3.4v.1c-.9 2.1-1.3 3.6-1.3 4.5v.5c0 .2.1.3.1.5h-4.1zm7.1-10.1h6.5l-3-8.3-3.5 8.3zm17 10.1c.3-.3.5-1 .6-2.2.1-1.1.2-3.6.2-7.3v-1.3c0-4-.1-6.6-.2-7.7-.1-1.1-.3-1.8-.6-2.1h4.4c-.3.3-.5 1-.6 2.1-.1 1.1-.2 3.4-.2 7V30c0 3.6.1 5.9.2 7 .1 1.1.3 1.8.6 2.1h-4.4zm12.1-18.2l.1 10.4c0 2.5.1 4.3.3 5.4.2 1.1.4 1.9.8 2.4h-3.7c.4-.5.7-1.8.9-3.7.2-1.9.3-4.8.3-8.5 0-3.3-.1-5.5-.3-6.4-.2-1-.5-1.6-.9-2h3.4c.6 0 1.3.6 2 1.7.2.3.3.5.5.7.6.9 1.5 2.3 2.8 4.2 2.9 4.5 5.3 7.9 7.1 10.4v-9c0-2.9-.1-4.9-.2-5.9s-.3-1.7-.7-2.1h3.1c-.3.3-.5 1.1-.7 2.4-.1 1.3-.2 3.9-.2 7.7v10.6h-2.1c-.7-1.1-2.5-3.8-5.3-7.9-2.9-4-5.3-7.5-7.2-10.4zm20 17.4v-3.5c.6 1.1 1.5 1.9 2.4 2.4 1 .6 2.1.8 3.4.8 1.2 0 2.3-.4 3-1.1.8-.7 1.2-1.7 1.2-2.8 0-.9-.3-1.7-.8-2.4s-1.4-1.4-2.7-2l-.4-.2c-3.6-2-5.4-4-5.4-6 0-1.6.6-2.9 1.9-3.9 1.2-1 2.9-1.5 4.8-1.5.6 0 1.3 0 2.1.1.8 0 1.2.1 1.3.1h1.4v3.4c-.4-.7-1-1.2-1.7-1.6-.7-.4-1.6-.5-2.6-.5-1.3 0-2.4.3-3.2.9-.8.6-1.2 1.4-1.2 2.4 0 1.5 1.4 3 4.3 4.5l.2.1c1.8.9 3.1 1.9 3.8 2.8.8.9 1.1 2 1.1 3.1 0 1.7-.7 3.2-2.1 4.4-1.4 1.2-3.2 1.8-5.2 1.8-.8 0-1.7-.1-2.6-.3-.9-.3-1.9-.6-3-1zm22.2.8c.3-.3.5-1 .6-2.1.1-1.1.2-3.4.2-7v-5.8c0-1.4-.1-2.7-.1-3.9h-3.4c-.8 0-1.4.1-1.8.2-.5.1-.9.3-1.4.6l.8-2.5h16.4c-.4.6-.8 1-1.4 1.3-.5.3-1.2.4-2.1.4h-3.9c-.1 1.4-.1 2.9-.1 4.4v4.7c0 4.1.1 6.6.2 7.8.1 1.1.3 1.8.6 2.1h-4.6zm14.9-20.6c1.3 0 2.7 0 4.2-.1 1.6-.1 2.5-.1 2.8-.1 1.6 0 2.9.3 3.7 1 .8.7 1.3 1.7 1.3 3.1 0 1.3-.4 2.5-1.2 3.5-.8 1-2 1.9-3.6 2.6l4.6 6.4c.8 1.1 1.5 1.9 2.1 2.7.6.7 1.2 1.2 1.7 1.6H247c-.4 0-.7-.1-.9-.2-.2-.1-.4-.3-.7-.7l-5.5-7.7c-.4-.6-.8-.9-1.1-1.1-.3-.2-.8-.3-1.3-.3h-.3v2c0 3.2.1 5.2.2 6.1.1.9.3 1.5.6 1.9h-4.4c.3-.3.5-1 .6-2.2.1-1.1.2-3.6.2-7.3v-1.3c0-4-.1-6.6-.2-7.7-.1-1.1-.3-1.8-.6-2.1h.9zm2.7 9.4c.2 0 .4.1.6.1h.7c1.6 0 2.8-.4 3.6-1.2.8-.8 1.3-2 1.3-3.5 0-1.3-.3-2.2-1-2.8-.6-.6-1.6-.9-2.9-.9h-1.2c-.3 0-.6 0-.8.1-.1.5-.2 1.2-.2 2.2 0 1-.1 2.4-.1 4.3v1.7zM252.4 39c.3-.3.5-1 .6-2.2.1-1.1.2-3.6.2-7.3v-1.3c0-4-.1-6.6-.2-7.7-.1-1.1-.3-1.8-.6-2.1h11.3l.3 3c-.3-.7-.8-1.1-1.5-1.4s-2.2-.4-4.3-.4h-1.8c-.1.5-.2 1.2-.2 2.2 0 1-.1 2.6-.1 4.5v1.1h2.5c1.3 0 2.3 0 3.2-.1.9-.1 1.6-.1 2.3-.3-.6.7-1.4 1.2-2.3 1.4-1 .3-2.6.4-4.9.4h-.9V31c0 2 0 3.5.1 4.5 0 1.1.1 1.8.2 2.3h1.9c2.1 0 3.7-.2 4.8-.5 1.1-.3 1.9-.9 2.5-1.7l-.6 3.2c-.4.1-.9.1-1.5.2-.6 0-1.1.1-1.7.1h-9.3zm17.7 0c.3-.3.5-1 .6-2.2.1-1.1.2-3.6.2-7.3v-1.3c0-4-.1-6.6-.2-7.7-.1-1.1-.3-1.8-.6-2.1h11.3l.3 3c-.3-.7-.8-1.1-1.5-1.4s-2.2-.4-4.3-.4H274c-.1.5-.2 1.2-.2 2.2 0 1-.1 2.6-.1 4.5v1.1h2.5c1.3 0 2.3 0 3.2-.1.9-.1 1.6-.1 2.3-.3-.6.7-1.4 1.2-2.3 1.4-1 .3-2.6.4-4.9.4h-.9V31c0 2 0 3.5.1 4.5 0 1.1.1 1.8.2 2.3h1.9c2.1 0 3.7-.2 4.8-.5 1.1-.3 1.9-.9 2.5-1.7l-.6 3.2c-.4.1-.9.1-1.5.2-.6 0-1.1.1-1.7.1h-9.2zm21.8 0c.3-.3.5-1 .6-2.1.1-1.1.2-3.4.2-7v-5.8c0-1.4-.1-2.7-.1-3.9h-3.4c-.8 0-1.4.1-1.8.2-.5.1-.9.3-1.4.6l.8-2.5H303c-.4.6-.8 1-1.4 1.3-.5.3-1.2.4-2.1.4h-3.9c-.1 1.4-.1 2.9-.1 4.4v4.7c0 4.1.1 6.6.2 7.8.1 1.1.3 1.8.6 2.1h-4.4zm-164.5 3.3l-.1 3c-.3-.8-.7-1.3-1.3-1.7-.6-.4-1.2-.6-2-.6-1.6 0-2.8.5-3.7 1.5-.9 1-1.3 2.4-1.3 4.2 0 1.9.5 3.3 1.5 4.4 1 1.1 2.3 1.7 3.9 1.7.8 0 1.5-.1 2.2-.4.7-.3 1.2-.7 1.7-1.3-.3 1-.8 1.8-1.7 2.4-.9.6-2 .9-3.2.9-1.9 0-3.5-.7-4.7-2-1.2-1.3-1.8-3-1.8-5.1 0-2.3.7-4.1 2-5.4 1.3-1.3 3.1-2 5.4-2 .4 0 .9 0 1.6.1.6.3 1.2.3 1.5.3zm8.8 14.2c-2 0-3.6-.6-4.7-1.8-1.1-1.2-1.7-2.9-1.7-5.2 0-2.4.6-4.3 1.8-5.6 1.2-1.3 2.9-1.9 5.2-1.9 2.1 0 3.8.6 4.8 1.7 1.1 1.1 1.6 2.8 1.6 5.1s-.6 4.2-1.9 5.5c-1.3 1.5-3 2.2-5.1 2.2zm.6-1c1.3 0 2.4-.5 3.1-1.5.8-1 1.1-2.4 1.1-4.3 0-2.1-.4-3.7-1.2-4.9-.8-1.2-1.9-1.8-3.3-1.8s-2.6.5-3.4 1.6c-.8 1-1.2 2.5-1.2 4.4 0 2.1.4 3.6 1.3 4.8.9 1.1 2.1 1.7 3.6 1.7zm16 1.1l-5-12.9v10.2c0 .7 0 1.2.1 1.5.1.4.2.7.4.9h-2.5c.4-.4.7-1.5.9-3.5.2-1.9.3-4.9.3-8.9 0-.4 0-.7-.1-.9-.1-.2-.2-.4-.4-.6h2.4c.2 0 .3 0 .4.1.1.1.1.2.2.3l3.9 10.5 4.4-10.4c.1-.2.2-.3.3-.4.1-.1.2-.1.5-.1h2.1c-.2.2-.3.6-.4 1.1-.1.5-.1 1.3-.1 2.3 0 3.6.1 6.2.2 7.6.2 1.5.4 2.4.8 2.9H158c.2-.3.4-.7.4-1.2.1-.5.1-1.1.1-2v-1.8l-.1-7.6-5.6 12.9zm17.8 0l-5-12.9v10.2c0 .7 0 1.2.1 1.5.1.4.2.7.4.9h-2.5c.4-.4.7-1.5.9-3.5.2-1.9.3-4.9.3-8.9 0-.4 0-.7-.1-.9-.1-.2-.2-.4-.4-.6h2.4c.2 0 .3 0 .4.1.1.1.1.2.2.3l3.9 10.5 4.4-10.4c.1-.2.2-.3.3-.4.1-.1.2-.1.5-.1h2.1c-.2.2-.3.6-.4 1.1-.1.5-.1 1.3-.1 2.3 0 3.6.1 6.2.2 7.6.2 1.5.4 2.4.8 2.9h-3.2c.2-.3.4-.7.4-1.2.1-.5.1-1.1.1-2v-1.8l-.1-7.6-5.6 12.9zm20.7-.3l.1-2c-.5.7-1.1 1.3-1.8 1.7s-1.7.6-2.7.6c-1.5 0-2.7-.4-3.4-1.1-.7-.7-1.1-1.9-1.1-3.5v-2.6c0-2.9 0-4.7-.1-5.5s-.2-1.3-.4-1.5h2.9c-.2.2-.4.7-.4 1.6-.1.9-.1 2.9-.1 5.9 0 2.2.3 3.7.8 4.4.5.7 1.4 1.1 2.6 1.1 1.3 0 2.2-.4 2.7-1.3s.8-2.5.8-4.7c0-2.9 0-4.7-.1-5.5-.1-.8-.2-1.3-.4-1.5h3c-.2.2-.4.7-.4 1.5s-.1 2.6-.1 5.5 0 4.7.1 5.5c.1.8.2 1.3.4 1.5h-2.4zm7.4-12.3l.1 7c0 1.7.1 2.9.2 3.6.1.7.3 1.3.5 1.6H197c.3-.4.5-1.2.6-2.5.1-1.3.2-3.2.2-5.7 0-2.2-.1-3.7-.2-4.3-.1-.7-.3-1.1-.6-1.3h2.3c.4 0 .9.4 1.4 1.1.1.2.2.4.3.5.4.6 1 1.6 1.9 2.9 2 3 3.6 5.4 4.8 7v-6.1c0-2 0-3.3-.1-4s-.2-1.2-.4-1.4h2.1c-.2.2-.4.7-.4 1.6-.1.9-.1 2.6-.1 5.2v7.2h-1.4c-.5-.8-1.7-2.5-3.6-5.3-2.2-2.8-3.8-5.2-5.1-7.1zm13.9 12.3c.2-.2.3-.7.4-1.5.1-.8.1-2.4.1-4.9V49c0-2.7 0-4.5-.1-5.2s-.2-1.2-.4-1.4h2.9c-.2.2-.3.7-.4 1.4-.1.7-.1 2.3-.1 4.7v1.6c0 2.4 0 4 .1 4.7.1.7.2 1.2.4 1.4h-2.9zm9.6 0c.2-.2.3-.7.4-1.4.1-.7.1-2.3.1-4.7v-3.9c0-.9-.1-1.8-.1-2.6h-2.3c-.5 0-.9 0-1.2.1-.3.1-.6.2-.9.4l.5-1.7h11c-.2.4-.6.7-.9.9-.4.2-.8.3-1.4.3h-2.6c0 1-.1 1.9-.1 2.9v3.2c0 2.7 0 4.5.1 5.2.1.8.2 1.2.4 1.4h-3zm11.9 0c.2-.3.3-.8.4-1.3.1-.5.1-1.2.1-1.9 0-1.4-.2-2.6-.6-3.8s-1-2.6-2-4.2c-.4-.6-.7-1.1-1-1.6-.3-.4-.6-.8-.9-1h1.7c.4 0 .8.1 1 .3.2.2.5.5.7 1.1.4.8.8 1.7 1.1 2.6.4.9.7 2 1.1 3.2l1.8-3.4.1-.3c.7-1.4 1.1-2.2 1.1-2.7 0-.2 0-.3-.1-.5s-.2-.3-.3-.4h2.8c-1 1.5-1.9 2.9-2.6 3.9-.7 1.1-1.2 1.9-1.5 2.5-.3.7-.6 1.4-.7 2.1-.1.7-.2 1.8-.2 3.3 0 .4 0 .8.1 1.2.1.4.2.7.3 1h-2.4zm17.4 0H250c.2-.2.3-.7.4-1.5.1-.8.1-2.4.1-4.9V49c0-2.7 0-4.5-.1-5.2s-.2-1.2-.4-1.4h1.8c.5 0 1.1 0 2-.1.9 0 1.5-.1 1.9-.1 1.1 0 1.9.2 2.5.7.6.5.9 1.1.9 1.9 0 .8-.3 1.5-.9 2.1-.6.6-1.4 1.1-2.5 1.5 1.3.1 2.3.6 3 1.2s1.1 1.5 1.1 2.6c0 1.3-.5 2.3-1.4 3.1-1 .8-2.2 1.2-3.8 1.2-.4 0-.9 0-1.6-.1-.7-.1-1.2-.1-1.5-.1zm.9-8.6v.5h.6c1.3 0 2.3-.3 3-.8.7-.5 1-1.2 1-2.2 0-.7-.3-1.3-.8-1.6-.5-.4-1.3-.5-2.4-.5h-1.3c-.1.3-.1.8-.2 1.5v3.1zm0 1.3v2.7c0 .8 0 1.5.1 2.1 0 .6.1 1 .1 1.2 0 .2.2.3.5.4.3.1.7.1 1.2.1 1 0 1.8-.3 2.4-.9s.8-1.4.8-2.4-.3-1.8-1-2.4c-.7-.6-1.6-.9-2.8-.9h-1.3zm8.3 7.3c.7-.8 1.3-1.8 2-3s1.4-2.7 2.1-4.4c.6-1.4 1.1-2.7 1.5-3.9.4-1.1.6-1.8.6-2v-.3c0-.1-.1-.2-.1-.3h2.7c1.1 3.5 2 6.5 3 8.9.9 2.4 1.7 4.1 2.4 5.1h-2.4l-2.2-6h-5.1l-.9 2.3v.1c-.6 1.4-.9 2.4-.9 3v.3c0 .1 0 .2.1.4h-2.8zm4.9-6.9h4.4l-2-5.6-2.4 5.6zm12.7-5.4l.1 7c0 1.7.1 2.9.2 3.6.1.7.3 1.3.5 1.6h-2.5c.3-.4.5-1.2.6-2.5.1-1.3.2-3.2.2-5.7 0-2.2-.1-3.7-.2-4.3-.1-.7-.3-1.1-.6-1.3h2.3c.4 0 .9.4 1.4 1.1.1.2.2.4.3.5.4.6 1 1.6 1.9 2.9 2 3 3.6 5.4 4.8 7v-6.1c0-2 0-3.3-.1-4s-.2-1.2-.4-1.4h2.1c-.2.2-.4.7-.4 1.6-.1.9-.1 2.6-.1 5.2v7.2H287c-.5-.8-1.7-2.5-3.6-5.3-2.2-2.8-3.8-5.2-5.1-7.1zm16.3 4.6c.3 0 .6-.2.9-.4.3-.3.8-.7 1.3-1.2 1.3-1.4 2.1-2.4 2.6-2.9.4-.6.6-1 .6-1.3v-.4h2.9c-.5.3-1.3 1-2.4 2.1-1.1 1.1-2.4 2.5-3.9 4.2l3.5 5c.1.1.2.2.3.4.8 1.1 1.4 1.9 1.9 2.2h-2.2c-.2 0-.4 0-.5-.1-.1-.1-.2-.2-.4-.3l-4.2-6.5h-.4v1.5c0 2.1 0 3.5.1 4.1.1.6.2 1 .4 1.3h-2.9c.2-.2.3-.7.4-1.5.1-.8.1-2.4.1-4.9V49c0-2.7 0-4.5-.1-5.2s-.2-1.2-.4-1.4h2.9c-.2.2-.3.6-.4 1.3-.1.6-.1 2-.1 4.1v.8zM255.7 65c-.9 0-1.6-.3-2-.8-.5-.5-.7-1.3-.7-2.2 0-1 .3-1.8.8-2.4.5-.6 1.3-.8 2.2-.8.9 0 1.6.2 2.1.7.5.5.7 1.2.7 2.2 0 1-.3 1.8-.8 2.4-.7.6-1.4.9-2.3.9zm.3-.5c.6 0 1-.2 1.3-.7s.5-1.1.5-1.8c0-.9-.2-1.6-.5-2.1s-.8-.8-1.4-.8c-.6 0-1.1.2-1.5.7-.3.4-.5 1.1-.5 1.9 0 .9.2 1.6.6 2.1.3.5.8.7 1.5.7zm5.1-2.9h1.6c.2 0 .4 0 .6-.1-.1.2-.3.3-.6.4-.2.1-.7.1-1.3.1h-.3v.5c0 .9 0 1.5.1 1.8 0 .3.1.4.2.5H260c.1-.1.1-.3.2-.6 0-.3.1-1 .1-2.1v-.4c0-1.2 0-1.9-.1-2.3 0-.3-.1-.5-.2-.6h3.4v.8c-.1-.2-.3-.3-.5-.4-.2-.1-.6-.1-1.1-.1h-.6c0 .1-.1.4-.1.7v1.8zm7.4 0h1.6c.2 0 .4 0 .6-.1-.1.2-.3.3-.6.4-.2.1-.7.1-1.3.1h-.3v.5c0 .9 0 1.5.1 1.8 0 .3.1.4.2.5h-1.3c.1-.1.1-.3.2-.6 0-.3.1-1 .1-2.1v-.4c0-1.2 0-1.9-.1-2.3 0-.3-.1-.5-.2-.6h3.4v.8c-.1-.2-.3-.3-.5-.4-.2-.1-.6-.1-1.1-.1h-.6c0 .1-.1.4-.1.7v1.8zm3.5-2.7h1.3c-.1.1-.1.3-.2.6 0 .3-.1 1-.1 2.1v2.1c0 .4 0 .7.1.9h.5c.5 0 .9 0 1.1-.1.3-.1.5-.3.6-.5l-.2.9c-.1 0-.3 0-.4.1H272c.1-.1.1-.3.2-.6 0-.3.1-1 .1-2.1v-.4c0-1.2 0-1.9-.1-2.3-.1-.4-.1-.6-.2-.7zm6.7 6.1c-.9 0-1.6-.3-2-.8-.5-.5-.7-1.3-.7-2.2 0-1 .3-1.8.8-2.4.5-.6 1.3-.8 2.2-.8.9 0 1.6.2 2.1.7.5.5.7 1.2.7 2.2 0 1-.3 1.8-.8 2.4-.6.6-1.3.9-2.3.9zm.3-.5c.6 0 1-.2 1.3-.7s.5-1.1.5-1.8c0-.9-.2-1.6-.5-2.1s-.8-.8-1.4-.8c-.6 0-1.1.2-1.5.7-.3.4-.5 1.1-.5 1.9 0 .9.2 1.6.6 2.1.3.5.9.7 1.5.7zm4.2-5.6h2c.5 0 .8.1 1.1.3s.4.5.4.9-.1.7-.4 1c-.2.3-.6.5-1.1.7l1.3 1.9c.2.3.4.6.6.8l.5.5h-1.2c-.1 0-.1-.1-.2-.2l-1.6-2.3c-.1-.2-.2-.3-.3-.3-.1-.1-.2-.1-.4-.1h-.1v.6c0 .9 0 1.5.1 1.8 0 .3.1.4.2.5h-1.3c.1-.1.1-.3.2-.6 0-.3.1-1 .1-2.1v-.4c0-1.2 0-1.9-.1-2.3 0-.3-.1-.5-.2-.6h.4zm.7 2.7h.4c.5 0 .8-.1 1-.4.2-.2.4-.6.4-1s-.1-.6-.3-.8c-.2-.2-.5-.3-.9-.3h-.5c0 .1-.1.3-.1.6v1.9zm4.4 3.3c.1-.1.1-.3.2-.6 0-.3.1-1 .1-2.1v-.4c0-1.2 0-1.9-.1-2.3 0-.3-.1-.5-.2-.6h1.3c-.1.1-.1.3-.2.6 0 .3-.1 1-.1 2v.8c0 1 0 1.7.1 2 0 .3.1.5.2.6h-1.3zm2.7 0c.1-.1.1-.3.2-.6 0-.3.1-1 .1-2.1v-.4c0-1.2 0-1.9-.1-2.3 0-.3-.1-.5-.2-.6h.7c.3 0 .6 0 1.1-.1.5 0 .8-.1 1-.1.9 0 1.5.3 2 .8s.7 1.2.7 2.1c0 1-.3 1.8-.9 2.4-.6.6-1.4.9-2.4.9H291zm1.2-5.6c0 .1 0 .4-.1.7v4.3c0 .2.1.3.3.3.1.1.4.1.8.1.8 0 1.4-.2 1.8-.7.4-.5.6-1.1.6-1.9 0-.9-.2-1.5-.7-2-.4-.5-1.1-.7-1.9-.7h-.5c0-.2-.2-.2-.3-.1zm4.7 5.6c.3-.3.6-.8.9-1.3.3-.5.6-1.1.9-1.9.3-.6.5-1.2.7-1.7.2-.5.3-.8.3-.9V59s0-.1-.1-.1h1.2c.5 1.5.9 2.8 1.3 3.8s.7 1.8 1 2.2h-1l-.9-2.6H299l-.4 1c-.2.6-.4 1-.4 1.3v.3h-1.3zm2.1-3h1.9l-.9-2.4-1 2.4z"/></svg>